<svg id="Calque_1" data-name="Calque 1" xmlns="http://www.w3.org/2000/svg" viewBox="0 0 314.6 61.61"><defs><style>.cls-1{fill:#e9041e;}.cls-2{fill:#fff;}.cls-3{fill:none;}</style></defs><title>SG_Brand Block_2 L_LIGHT BKGD-UK-RGB</title><path d="M17.5,16.16h-5V12.53H27v3.63H22.09V28.74H17.5Z"/><path d="M44.53,12.53V28.74H39.94V22.41H33.69v6.33H29.11V12.53h4.58v6.09h6.25V12.53Z"/><path d="M60.21,25.19v3.55h-13V12.53H59.9v3.54H51.73V18.8h7.2v3.43h-7.2v3Z"/><path d="M72.92,16.07v3.57h7.15v3.54H72.92v5.56H68.33V12.53H81.05v3.54Z"/><path d="M83.41,21.51v-9H88v8.84c0,2.78,1.16,3.89,3.08,3.89s3.06-1.11,3.06-3.89V12.53h4.51v9c0,4.84-2.82,7.55-7.61,7.55S83.41,26.35,83.41,21.51Z"/><path d="M105.55,16.16h-5V12.53h14.52v3.63h-5V28.74h-4.58Z"/><path d="M117.47,21.51v-9h4.59v8.84c0,2.78,1.15,3.89,3.08,3.89s3-1.11,3-3.89V12.53h4.52v9c0,4.84-2.83,7.55-7.62,7.55S117.47,26.35,117.47,21.51Z"/><path d="M142.32,24.43h-2.5v4.31h-4.59V12.53h7.41c4.43,0,7.2,2.29,7.2,6a5.36,5.36,0,0,1-3.17,5.12l3.5,5.1h-4.91Zm0-8.29h-2.54v4.75h2.54c1.9,0,2.85-.88,2.85-2.37S144.26,16.14,142.36,16.14Z"/><path d="M164.8,25.19v3.55h-13V12.53H164.5v3.54h-8.17V18.8h7.2v3.43h-7.2v3Z"/><path d="M86.15,32.88h4.58V49.09H86.15Z"/><path d="M93.21,47.63l1.51-3.38a10.19,10.19,0,0,0,5.35,1.59c1.89,0,2.64-.53,2.64-1.32,0-2.57-9.22-.69-9.22-6.71,0-2.9,2.36-5.26,7.18-5.26A12.23,12.23,0,0,1,106.55,34l-1.41,3.41a9.62,9.62,0,0,0-4.5-1.25c-1.92,0-2.61.65-2.61,1.46,0,2.47,9.19.62,9.19,6.6,0,2.82-2.36,5.23-7.18,5.23A12.82,12.82,0,0,1,93.21,47.63Z"/><path d="M123.59,43.27v5.82H119V43.2l-6.19-10.32h4.84l3.85,6.43,3.84-6.43h4.45Z"/><path d="M128.94,41c0-4.86,3.82-8.43,9-8.43s9,3.57,9,8.43-3.82,8.43-9,8.43S128.94,45.84,128.94,41Zm13.38,0a4.38,4.38,0,1,0-8.75,0,4.38,4.38,0,1,0,8.75,0Z"/><path d="M149.57,41.86v-9h4.59v8.84c0,2.78,1.16,3.89,3.08,3.89s3-1.11,3-3.89V32.88h4.52v9c0,4.84-2.82,7.55-7.62,7.55S149.57,46.7,149.57,41.86Z"/><path d="M215.92,21.36a10.87,10.87,0,0,0-4.07-.94c-1.87,0-2.81.4-2.81,1.12,0,2.07,8.36.41,8.36,4.83,0,1.83-1.72,3.24-5.16,3.24a10.73,10.73,0,0,1-5.47-1.41l.76-1.65a9.42,9.42,0,0,0,4.72,1.29c2,0,3.14-.59,3.14-1.47,0-2.27-8.37-.57-8.37-4.72,0-1.78,1.71-3,4.79-3a10.49,10.49,0,0,1,4.88,1.15Z"/><path d="M225.24,20.36a3.81,3.81,0,0,0-4.09,3.76,4.09,4.09,0,1,0,4.09-3.76m0,9.31c-3.34,0-6.11-2.23-6.11-5.55s2.77-5.55,6.11-5.55,6.08,2.26,6.08,5.55-2.72,5.55-6.08,5.55"/><path d="M239.3,29.66c-3.51,0-6.15-2.23-6.15-5.56s2.68-5.53,6.15-5.53a7.74,7.74,0,0,1,4.88,1.56l-1,1.54a6,6,0,0,0-3.79-1.28c-2.56,0-4.15,1.62-4.15,3.71s1.6,3.74,4.17,3.74a6.18,6.18,0,0,0,3.85-1.26l1,1.54a8,8,0,0,1-5,1.54"/><rect x="246.38" y="18.89" width="1.95" height="10.49"/><polygon points="251.21 18.89 251.21 29.37 261.09 29.37 261.09 27.64 253.15 27.64 253.15 24.9 259.06 24.9 259.06 23.17 253.15 23.17 253.15 20.62 260.76 20.62 260.76 18.89 251.21 18.89"/><polygon points="262.13 18.89 262.13 20.61 266.4 20.61 266.4 29.37 268.35 29.37 268.35 20.61 272.62 20.61 272.62 18.89 262.13 18.89"/><polygon points="274.18 18.89 274.18 29.37 284.06 29.37 284.06 27.64 276.13 27.64 276.13 24.9 282.04 24.9 282.04 23.17 276.13 23.17 276.13 20.62 283.73 20.62 283.73 18.89 274.18 18.89"/><path d="M212.77,41.78a7.29,7.29,0,0,0,3-.63v-3h1.89v4.07a9.11,9.11,0,0,1-5,1.44c-3.51,0-6.15-2.22-6.15-5.55s2.68-5.53,6.15-5.53a7.82,7.82,0,0,1,4.88,1.55l-1,1.54a6,6,0,0,0-3.8-1.25c-2.56,0-4.15,1.6-4.15,3.69s1.61,3.72,4.18,3.72"/><polygon points="220.21 32.85 220.21 43.33 230.09 43.33 230.09 41.6 222.15 41.6 222.15 38.86 228.07 38.86 228.07 37.13 222.15 37.13 222.15 34.58 229.76 34.58 229.76 32.85 220.21 32.85"/><path d="M233.91,43.33H232V32.85h2l6.84,7.9,0,0c-.11-2-.13-3.59-.13-5.14V32.85h1.9V43.33h-2l-6.81-7.9,0,0c.08,1.55.08,4.26.08,5.15Z"/><polygon points="245.38 32.85 245.38 43.33 255.26 43.33 255.26 41.6 247.32 41.6 247.32 38.86 253.23 38.86 253.23 37.13 247.32 37.13 247.32 34.58 254.93 34.58 254.93 32.85 245.38 32.85"/><path d="M263.85,37.73c1.21,0,1.9-.63,1.9-1.54a1.51,1.51,0,0,0-1.7-1.61h-4.79v3.15Zm-1.46,1.74h-3.13v3.86h-1.94V32.85h6.73c2.24,0,3.63,1.37,3.63,3.34a3.24,3.24,0,0,1-3,3.23l3.12,3.91h-2.44Z"/><path d="M274.61,34.83l2,4.25h-4Zm-1-2-5.11,10.48h2.1l1.2-2.54h5.66l1.21,2.54h2.09l-5.11-10.48Z"/><polygon points="282.16 32.85 282.16 43.33 291.1 43.33 291.1 41.6 284.1 41.6 284.1 32.85 282.16 32.85"/><polygon points="292.42 32.85 292.42 43.33 302.3 43.33 302.3 41.6 294.36 41.6 294.36 38.86 300.27 38.86 300.27 37.13 294.36 37.13 294.36 34.58 301.97 34.58 301.97 32.85 292.42 32.85"/><rect class="cls-1" x="174.19" y="18.56" width="25.05" height="12.78"/><rect x="174.19" y="31.09" width="25.05" height="12.52"/><rect class="cls-2" x="178.57" y="30.32" width="16.3" height="1.52"/><rect class="cls-3" x="126.49" y="-126.49" width="61.61" height="314.6" transform="translate(188.1 -126.49) rotate(90)"/></svg>